<?xml version="1.0" encoding="UTF-8"?>
<svg width="24px" height="24px" viewBox="0 0 24 24" version="1.1" xmlns="http://www.w3.org/2000/svg" xmlns:xlink="http://www.w3.org/1999/xlink">
    <g id="icon-lona-file" transform="translate(4, 2)">
      <path d="M1.5,0.5 L8.6715729,0.5 C9.2020059,0.5 9.7107137,0.71071368 10.0857864,1.08578644 L13.9142136,4.91421356 C14.2892863,5.28928632 14.5,5.79799415 14.5,6.32842712 L14.5,18.5 C14.5,19.0522847 14.0522847,19.5 13.5,19.5 L1.5,19.5 C0.94771525,19.5 0.5,19.0522847 0.5,18.5 L0.5,1.5 C0.5,0.94771525 0.94771525,0.5 1.5,0.5 Z" id="outline" stroke="#8C8C8C" fill="#D8D8D8"></path>
      <path d="M1.5,18.5 L13.5,18.5" id="highlight" stroke-opacity="0.2" stroke="#FFFFFF" stroke-linecap="square"></path>
      <path d="M10.5065009,12.1242399 L10.1797327,12.3906372 C9.00906058,11.4397245 7.6893236,10.3705814 7.63783366,10.3261922 C7.54551662,10.2466063 7.43182959,10.2466063 7.33206926,10.3261922 C7.23230893,10.4057782 3.08359279,13.802937 2.98895854,13.8799266 C2.89432428,13.9569163 2.89432428,14.1610393 2.98895854,14.2380104 C3.08359279,14.3149815 7.21806226,17.6925069 7.33206926,17.7818791 C7.44607625,17.8712514 7.53787404,17.8712514 7.65526309,17.7818791 C7.77265213,17.6925069 11.899299,14.3129816 11.9767512,14.2457257 C12.0542034,14.1784699 12.0542034,13.9401624 11.9767512,13.8598196 C11.9758983,13.8589349 11.9745492,13.8576508 11.9727149,13.8559761 L12.2928292,13.5906094 C12.5716917,13.8185733 12.5690318,14.2828573 12.2848495,14.5266374 C11.9979821,14.7727208 8.1344828,17.936458 7.87764483,18.1435633 C7.62080686,18.3506685 7.33353114,18.3506685 7.09625397,18.1435633 C6.8589768,17.936458 2.93729095,14.7342085 2.69296924,14.5266374 C2.44864752,14.3190663 2.44864752,13.7819477 2.69296924,13.5842114 C2.93729095,13.3864751 6.88664404,10.1524186 7.09625397,9.97656159 C7.30586389,9.80070462 7.58117269,9.71769622 7.90014362,9.97656159 C8.08068525,10.1230827 9.36967557,11.187257 10.5065009,12.1242399 Z M3.60331943,13.8598698 L3.9310631,13.5918158 C5.18565186,14.616361 7.24239923,16.2957681 7.32234131,16.3584362 C7.4363483,16.4478084 7.52814609,16.4478084 7.64553514,16.3584362 C7.76292418,16.2690639 11.8895711,12.8895387 11.9670233,12.8222828 C12.0444755,12.755027 12.0444755,12.5167195 11.9670233,12.4363767 C11.8895711,12.3560339 7.72042274,8.9823353 7.62810571,8.90274933 C7.53578867,8.82316335 7.42210164,8.82316335 7.32234131,8.90274933 C7.22258098,8.9823353 3.07386485,12.379494 2.97923059,12.4564837 C2.88459633,12.5334734 2.88459633,12.7375963 2.97923059,12.8145675 C2.98311107,12.8177237 2.99378416,12.8264294 3.01069414,12.8402305 L2.6886341,13.1077588 C2.68667351,13.1061046 2.68487517,13.1045826 2.68324129,13.1031945 C2.43891957,12.8956233 2.43891957,12.3585048 2.68324129,12.1607685 C2.927563,11.9630322 6.87691609,8.72897563 7.08652602,8.55311867 C7.29613594,8.3772617 7.57144474,8.2942533 7.89041568,8.55311867 C8.20938661,8.81198403 11.9882542,11.9351997 12.2751215,12.1607685 C12.5619889,12.3863373 12.5619889,12.857111 12.2751215,13.1031945 C11.9882542,13.3492779 8.12475485,16.5130151 7.86791688,16.7201203 C7.61107891,16.9272256 7.32380319,16.9272256 7.08652602,16.7201203 C6.91621391,16.571465 4.84768007,14.8796996 3.60331943,13.8598698 Z M4.46293103,13.1754235 L4.78767052,12.9026698 C5.95172361,13.8531363 7.25892983,14.9200889 7.32234131,14.9697983 C7.4363483,15.0591706 7.52814609,15.0591706 7.64553514,14.9697983 C7.72749735,14.9073977 9.76396178,13.2410565 11.0120287,12.2180775 L11.3384969,12.4885099 C10.0941506,13.5114249 8.05224053,15.1828503 7.86791688,15.3314825 C7.61107891,15.5385877 7.32380319,15.5385877 7.08652602,15.3314825 C6.95166425,15.2137696 5.62656512,14.1284842 4.46293103,13.1754235 Z M12.3000621,11.691914 L11.9766188,11.4240073 C12.0443312,11.3461129 12.0443312,11.1136062 11.9670233,11.0477388 C11.8897153,10.9818715 7.72042274,7.59369742 7.62810571,7.51411145 C7.53578867,7.43452547 7.42210164,7.43452547 7.32234131,7.51411145 C7.22258098,7.59369742 3.07386485,10.9908562 2.97923059,11.0678458 C2.88459633,11.1448355 2.88459633,11.3489585 2.97923059,11.4259296 C2.98250436,11.4285923 2.99061274,11.4352049 3.00322205,11.4454947 L2.68324129,11.7145566 C2.68197053,11.713477 2.68070638,11.7123885 2.67944884,11.7112911 C2.43892618,11.5014073 2.44019033,10.9688384 2.68324129,10.7721306 C2.927563,10.5743943 6.87691609,7.34033775 7.08652602,7.16448079 C7.29613594,6.98862382 7.57144474,6.90561542 7.89041568,7.16448079 C8.20938661,7.42334616 11.9882542,10.5465618 12.2751215,10.7721306 C12.5534194,10.9909611 12.5617329,11.4405653 12.3000621,11.691914 Z" id="lonaLogo" fill="#979797" fill-rule="nonzero"></path>
      <path d="M13.0857864,6.5 L9.5,6.5 C8.9477153,6.5 8.5,6.05228475 8.5,5.5 L8.5,1.91421356 C8.5,1.36192881 8.9477153,0.91421356 9.5,0.91421356 C9.7652165,0.91421356 10.0195704,1.0195704 10.2071068,1.20710678 L13.7928932,4.79289322 C14.1834175,5.18341751 14.1834175,5.81658249 13.7928932,6.20710678 C13.6053568,6.39464316 13.3510029,6.5 13.0857864,6.5 Z" id="fold" stroke="#8C8C8C" fill="#EEEEEE"></path>
    </g>
</svg>
