<?xml version="1.0" encoding="UTF-8"?>
<svg width="24px" height="24px" viewBox="0 0 24 24" version="1.1" xmlns="http://www.w3.org/2000/svg" xmlns:xlink="http://www.w3.org/1999/xlink">
    <!-- Generator: Sketch 52.2 (67145) - http://www.bohemiancoding.com/sketch -->
    <title>icon-folder</title>
    <desc>Created with Sketch.</desc>
    <g id="icon-folder" stroke="none" stroke-width="1" fill="none" fill-rule="evenodd">
        <path d="M1.5,19.5 L1.5,5.5 C1.5,4.94771525 1.94771525,4.5 2.5,4.5 L7.08578644,4.5 C7.35100293,4.5 7.60535684,4.60535684 7.79289322,4.79289322 L9.20710678,6.20710678 C9.39464316,6.39464316 9.64899707,6.5 9.91421356,6.5 L20.5,6.5 C21.0522847,6.5 21.5,6.94771525 21.5,7.5 L21.5,19.5 C21.5,20.0522847 21.0522847,20.5 20.5,20.5 L2.5,20.5 C1.94771525,20.5 1.5,20.0522847 1.5,19.5 Z" id="outline" stroke="#8C8C8C" fill="#EEEEEE"></path>
        <rect id="contents" fill="#CDCDCD" x="2" y="9" width="19" height="11"></rect>
        <path d="M2.5,19.5 L20.5,19.5" id="highlight" stroke-opacity="0.2" stroke="#FFFFFF" stroke-linecap="square"></path>
        <path d="M2.5,8.5 L20.5,8.5" id="divider" stroke="#8C8C8C" stroke-linecap="square"></path>
    </g>
</svg>