<?xml version="1.0" encoding="UTF-8"?>
<svg width="16px" height="19px" viewBox="0 0 16 19" version="1.1" xmlns="http://www.w3.org/2000/svg" xmlns:xlink="http://www.w3.org/1999/xlink">
    <!-- Generator: Sketch 64 (93537) - https://sketch.com -->
    <title>icon-book</title>
    <desc>Created with Sketch.</desc>
    <g id="icon-book" stroke="none" stroke-width="1" fill="none" fill-rule="evenodd">
        <path d="M0.292893219,1.70710678 L1.70710678,0.292893219 C1.89464316,0.10535684 2.14899707,4.87194788e-17 2.41421356,0 L13.5857864,0 C13.8510029,4.22399647e-16 14.1053568,0.10535684 14.2928932,0.292893219 L15.7071068,1.70710678 C15.8946432,1.89464316 16,2.14899707 16,2.41421356 L16,18 C16,18.5522847 15.5522847,19 15,19 L1,19 C0.44771525,19 6.76353751e-17,18.5522847 0,18 L0,2.41421356 C6.33654162e-16,2.14899707 0.10535684,1.89464316 0.292893219,1.70710678 Z" id="Outer" fill="#FFFFFF"></path>
        <polygon id="Inner" fill="#9B9B9B" points="8 4 13 4 13 13 10.5 10.5 8 13"></polygon>
        <path d="M3.41421356,1 L12.5857864,1 C12.8510029,1 13.1053568,1.10535684 13.2928932,1.29289322 L15,3 L15,3 L1,3 L2.70710678,1.29289322 C2.89464316,1.10535684 3.14899707,1 3.41421356,1 Z" id="Inner2" fill="#9B9B9B"></path>
    </g>
</svg>