<?xml version="1.0" encoding="UTF-8"?>
<svg width="19px" height="15px" viewBox="0 0 19 15" version="1.1" xmlns="http://www.w3.org/2000/svg" xmlns:xlink="http://www.w3.org/1999/xlink">
    <!-- Generator: Sketch 63.1 (92452) - https://sketch.com -->
    <title>icon-folder-2</title>
    <desc>Created with Sketch.</desc>
    <g id="Symbols" stroke="none" stroke-width="1" fill="none" fill-rule="evenodd">
        <g id="Folder-Icon-/-Regular-/-Selected">
            <g id="icon-folder-2">
                <path d="M1,0 L4.18578644,0 C4.45100293,-4.87194788e-17 4.70535684,0.10535684 4.89289322,0.292893219 L6.30710678,1.70710678 C6.49464316,1.89464316 6.74899707,2 7.01421356,2 L18,2 C18.5522847,2 19,2.44771525 19,3 L19,14 C19,14.5522847 18.5522847,15 18,15 L1,15 C0.44771525,15 6.76353751e-17,14.5522847 0,14 L0,1 C-6.76353751e-17,0.44771525 0.44771525,1.01453063e-16 1,0 Z" id="Outer" fill="#FFFFFF"></path>
                <path d="M2,1 L3.58578644,1 C3.85100293,1 4.10535684,1.10535684 4.29289322,1.29289322 L5.70710678,2.70710678 C5.89464316,2.89464316 6.14899707,3 6.41421356,3 L17,3 C17.5522847,3 18,3.44771525 18,4 L18,5 L18,5 L1,5 L1,2 C1,1.44771525 1.44771525,1 2,1 Z" id="Inner" fill-opacity="0.2" fill="#0463E1"></path>
            </g>
        </g>
    </g>
</svg>